<svg width="1280" height="640" viewBox="0 0 1280 640" fill="none" xmlns="http://www.w3.org/2000/svg" role="img" aria-labelledby="title desc">
  <title id="title">RepoLens terminal preview</title>
  <desc id="desc">Terminal-style preview showing RepoLens blocking a repeated full-file read and suggesting range reads.</desc>
  <rect width="1280" height="640" rx="0" fill="#0b0f14"/>
  <rect x="70" y="58" width="1140" height="524" rx="14" fill="#111820" stroke="#263241" stroke-width="2"/>
  <rect x="70" y="58" width="1140" height="48" rx="14" fill="#1a232d"/>
  <circle cx="102" cy="82" r="9" fill="#ff5f57"/>
  <circle cx="132" cy="82" r="9" fill="#ffbd2e"/>
  <circle cx="162" cy="82" r="9" fill="#28c840"/>
  <text x="600" y="90" fill="#8ea2b8" font-family="ui-monospace, SFMono-Regular, Menlo, Consolas, monospace" font-size="17" text-anchor="middle">OpenCode + RepoLens</text>

  <text x="112" y="160" fill="#8ea2b8" font-family="ui-monospace, SFMono-Regular, Menlo, Consolas, monospace" font-size="24">$ opencode</text>
  <text x="112" y="210" fill="#d7e3ee" font-family="ui-monospace, SFMono-Regular, Menlo, Consolas, monospace" font-size="25">Read src/api.ts</text>
  <text x="112" y="250" fill="#28d17c" font-family="ui-monospace, SFMono-Regular, Menlo, Consolas, monospace" font-size="25">RepoLens: first full read allowed</text>

  <text x="112" y="326" fill="#d7e3ee" font-family="ui-monospace, SFMono-Regular, Menlo, Consolas, monospace" font-size="25">Read src/api.ts again</text>
  <rect x="104" y="352" width="720" height="128" rx="8" fill="#151d26" stroke="#33506a" stroke-width="1.5"/>
  <text x="130" y="392" fill="#ffcf6e" font-family="ui-monospace, SFMono-Regular, Menlo, Consolas, monospace" font-size="21">[RepoLens] Re-reading src/api.ts (~207 tok).</text>
  <text x="130" y="430" fill="#d7e3ee" font-family="ui-monospace, SFMono-Regular, Menlo, Consolas, monospace" font-size="20">Key sections: createAPI() L8</text>
  <text x="130" y="466" fill="#72d6ff" font-family="ui-monospace, SFMono-Regular, Menlo, Consolas, monospace" font-size="20">Use grep or offset/limit.</text>

  <rect x="998" y="168" width="112" height="112" rx="56" fill="#10251d" stroke="#28d17c" stroke-width="3"/>
  <path d="M1029 224C1029 200.8 1047.8 182 1071 182C1094.2 182 1113 200.8 1113 224C1113 247.2 1094.2 266 1071 266C1047.8 266 1029 247.2 1029 224Z" fill="#152f27"/>
  <path d="M1055 224L1067 236L1090 209" stroke="#28d17c" stroke-width="9" stroke-linecap="round" stroke-linejoin="round"/>
  <text x="1054" y="328" fill="#d7e3ee" font-family="Inter, ui-sans-serif, system-ui, sans-serif" font-size="31" font-weight="700" text-anchor="middle">RepoLens</text>
  <text x="1054" y="366" fill="#8ea2b8" font-family="Inter, ui-sans-serif, system-ui, sans-serif" font-size="19" text-anchor="middle">context guardrail</text>
  <text x="1054" y="514" fill="#d7e3ee" font-family="Inter, ui-sans-serif, system-ui, sans-serif" font-size="24" font-weight="700" text-anchor="middle">Read less.</text>
  <text x="1054" y="548" fill="#d7e3ee" font-family="Inter, ui-sans-serif, system-ui, sans-serif" font-size="24" font-weight="700" text-anchor="middle">Remember more.</text>
</svg>
